<?xml version="1.0" encoding="UTF-8"?>
<svg xmlns="http://www.w3.org/2000/svg" width="1684" height="1191" viewBox="0 0 1684 1191">
<defs><style>text{font-family:-apple-system,Helvetica,Arial,sans-serif}</style></defs>
<rect width="1684" height="1191" fill="#fafbfc"/>
<rect x="0" y="0" width="1684" height="130" fill="#0f172a"/>
<text x="60" y="58" font-size="34" font-weight="700" fill="#ffffff">First-Order Business Capability Catalog</text>
<text x="60" y="92" font-size="20" fill="#cbd5e1">Poster: Enterprise Concept Framework backdrop, 26 canonical first-order capabilities</text>
<rect x="1324" y="34" width="300" height="62" rx="6" fill="#1e293b" stroke="#475569"/>
<text x="1334" y="62" font-size="13" fill="#94a3b8">Catalog version</text>
<text x="1334" y="86" font-size="22" font-weight="700" fill="#fef3c7">v1-alpha.2</text>
<text x="354.57142857142856" y="146" font-size="18" font-weight="600" fill="#1f2933" text-anchor="middle">CONCEIVE</text>
<text x="499.71428571428567" y="146" font-size="18" font-weight="600" fill="#1f2933" text-anchor="middle">DESIGN</text>
<text x="644.8571428571428" y="146" font-size="18" font-weight="600" fill="#1f2933" text-anchor="middle">BUILD</text>
<text x="790" y="146" font-size="18" font-weight="600" fill="#1f2933" text-anchor="middle">ACTIVATE</text>
<text x="935.1428571428571" y="146" font-size="18" font-weight="600" fill="#1f2933" text-anchor="middle">OPERATE</text>
<text x="1080.2857142857142" y="146" font-size="18" font-weight="600" fill="#1f2933" text-anchor="middle">IMPROVE</text>
<text x="1225.4285714285716" y="146" font-size="18" font-weight="600" fill="#1f2933" text-anchor="middle">RETIRE</text>
<text x="70" y="223.64285714285714" font-size="14" font-weight="600" fill="#1f2933">Governance &amp; Existence</text>
<rect x="284" y="164" width="141.14285714285714" height="109.28571428571429" rx="6" fill="#ffffff" stroke="#e5e7eb"/>
<rect x="288" y="168" width="133.14285714285714" height="16.25714285714286" rx="4" fill="#dbeafe" stroke="#1e3a8a" stroke-width="1.5"/>
<text x="294" y="184" font-size="11" font-weight="700" fill="#1e3a8a">CAND-001</text>
<text x="294" y="200" font-size="11" fill="#1f2933">Strategy</text>
<text x="421.1428571428571" y="184" font-size="10" font-weight="600" fill="#1e3a8a" text-anchor="end">+1 sec</text>
<rect x="288" y="184.25714285714287" width="133.14285714285714" height="16.25714285714286" rx="4" fill="#dbeafe" stroke="#1e3a8a" stroke-width="1.5"/>
<text x="294" y="200.25714285714287" font-size="11" font-weight="700" fill="#1e3a8a">CAND-002</text>
<text x="294" y="216.25714285714287" font-size="11" fill="#1f2933">Strategic Planning</text>
<rect x="288" y="200.51428571428573" width="133.14285714285714" height="16.25714285714286" rx="4" fill="#dbeafe" stroke="#1e3a8a" stroke-width="1.5"/>
<text x="294" y="216.51428571428573" font-size="11" font-weight="700" fill="#1e3a8a">CAND-003</text>
<text x="294" y="232.51428571428573" font-size="11" fill="#1f2933">Enterprise Governance</text>
<text x="421.1428571428571" y="216.51428571428573" font-size="10" font-weight="600" fill="#1e3a8a" text-anchor="end">+2 sec</text>
<rect x="288" y="216.77142857142857" width="133.14285714285714" height="16.25714285714286" rx="4" fill="#fed7aa" stroke="#7c2d12" stroke-width="1.5"/>
<text x="294" y="232.77142857142857" font-size="11" font-weight="700" fill="#7c2d12">CAND-020</text>
<text x="294" y="248.77142857142857" font-size="11" fill="#1f2933">Risk Management</text>
<text x="421.1428571428571" y="232.77142857142857" font-size="10" font-weight="600" fill="#7c2d12" text-anchor="end">+2 sec</text>
<rect x="288" y="233.02857142857144" width="133.14285714285714" height="16.25714285714286" rx="4" fill="#fed7aa" stroke="#7c2d12" stroke-width="1.5"/>
<text x="294" y="249.02857142857144" font-size="11" font-weight="700" fill="#7c2d12">CAND-022</text>
<text x="294" y="265.02857142857147" font-size="11" fill="#1f2933">Legal Management</text>
<text x="421.1428571428571" y="249.02857142857144" font-size="10" font-weight="600" fill="#7c2d12" text-anchor="end">+1 sec</text>
<rect x="429.1428571428571" y="164" width="141.14285714285714" height="109.28571428571429" rx="6" fill="#ffffff" stroke="#e5e7eb"/>
<rect x="433.1428571428571" y="168" width="133.14285714285714" height="16.25714285714286" rx="4" fill="#fed7aa" stroke="#7c2d12" stroke-width="1.5"/>
<text x="439.1428571428571" y="184" font-size="11" font-weight="700" fill="#7c2d12">CAND-023</text>
<text x="439.1428571428571" y="200" font-size="11" fill="#1f2933">Resilience Management</text>
<text x="566.2857142857142" y="184" font-size="10" font-weight="600" fill="#7c2d12" text-anchor="end">+1 sec</text>
<rect x="433.1428571428571" y="184.25714285714287" width="133.14285714285714" height="16.25714285714286" rx="4" fill="#fed7aa" stroke="#7c2d12" stroke-width="1.5"/>
<text x="439.1428571428571" y="200.25714285714287" font-size="11" font-weight="700" fill="#7c2d12">CAND-024</text>
<text x="439.1428571428571" y="216.25714285714287" font-size="11" fill="#1f2933">Security Management</text>
<text x="566.2857142857142" y="200.25714285714287" font-size="10" font-weight="600" fill="#7c2d12" text-anchor="end">+1 sec</text>
<rect x="574.2857142857142" y="164" width="141.14285714285714" height="109.28571428571429" rx="6" fill="#ffffff" stroke="#e5e7eb"/>
<rect x="719.4285714285714" y="164" width="141.14285714285714" height="109.28571428571429" rx="6" fill="#ffffff" stroke="#e5e7eb"/>
<rect x="723.4285714285714" y="168" width="133.14285714285714" height="16.25714285714286" rx="4" fill="#fed7aa" stroke="#7c2d12" stroke-width="1.5"/>
<text x="729.4285714285714" y="184" font-size="11" font-weight="700" fill="#7c2d12">CAND-021</text>
<text x="729.4285714285714" y="200" font-size="11" fill="#1f2933">Compliance Management</text>
<text x="856.5714285714286" y="184" font-size="10" font-weight="600" fill="#7c2d12" text-anchor="end">+1 sec</text>
<rect x="864.5714285714286" y="164" width="141.14285714285714" height="109.28571428571429" rx="6" fill="#ffffff" stroke="#e5e7eb"/>
<rect x="1009.7142857142857" y="164" width="141.14285714285714" height="109.28571428571429" rx="6" fill="#ffffff" stroke="#e5e7eb"/>
<rect x="1013.7142857142857" y="168" width="133.14285714285714" height="16.25714285714286" rx="4" fill="#dbeafe" stroke="#1e3a8a" stroke-width="1.5"/>
<text x="1019.7142857142857" y="184" font-size="11" font-weight="700" fill="#1e3a8a">CAND-028</text>
<text x="1019.7142857142857" y="200" font-size="11" fill="#1f2933">Change Management</text>
<rect x="1154.857142857143" y="164" width="141.14285714285714" height="109.28571428571429" rx="6" fill="#ffffff" stroke="#e5e7eb"/>
<text x="70" y="332.92857142857144" font-size="14" font-weight="600" fill="#1f2933">Party &amp; Relationship</text>
<rect x="284" y="281.2857142857143" width="141.14285714285714" height="109.28571428571429" rx="6" fill="#ffffff" stroke="#e5e7eb"/>
<rect x="288" y="285.2857142857143" width="133.14285714285714" height="16.25714285714286" rx="4" fill="#d1fae5" stroke="#065f46" stroke-width="1.5"/>
<text x="294" y="301.2857142857143" font-size="11" font-weight="700" fill="#065f46">CAND-008</text>
<text x="294" y="317.2857142857143" font-size="11" fill="#1f2933">Partner Management</text>
<text x="421.1428571428571" y="301.2857142857143" font-size="10" font-weight="600" fill="#065f46" text-anchor="end">+1 sec</text>
<rect x="288" y="301.54285714285714" width="133.14285714285714" height="16.25714285714286" rx="4" fill="#d1fae5" stroke="#065f46" stroke-width="1.5"/>
<text x="294" y="317.54285714285714" font-size="11" font-weight="700" fill="#065f46">CAND-010</text>
<text x="294" y="333.54285714285714" font-size="11" fill="#1f2933">Marketing</text>
<text x="421.1428571428571" y="317.54285714285714" font-size="10" font-weight="600" fill="#065f46" text-anchor="end">+1 sec</text>
<rect x="429.1428571428571" y="281.2857142857143" width="141.14285714285714" height="109.28571428571429" rx="6" fill="#ffffff" stroke="#e5e7eb"/>
<rect x="574.2857142857142" y="281.2857142857143" width="141.14285714285714" height="109.28571428571429" rx="6" fill="#ffffff" stroke="#e5e7eb"/>
<rect x="719.4285714285714" y="281.2857142857143" width="141.14285714285714" height="109.28571428571429" rx="6" fill="#ffffff" stroke="#e5e7eb"/>
<rect x="864.5714285714286" y="281.2857142857143" width="141.14285714285714" height="109.28571428571429" rx="6" fill="#ffffff" stroke="#e5e7eb"/>
<rect x="868.5714285714286" y="285.2857142857143" width="133.14285714285714" height="16.25714285714286" rx="4" fill="#d1fae5" stroke="#065f46" stroke-width="1.5"/>
<text x="874.5714285714286" y="301.2857142857143" font-size="11" font-weight="700" fill="#065f46">CAND-005</text>
<text x="874.5714285714286" y="317.2857142857143" font-size="11" fill="#1f2933">Customer Management</text>
<text x="1001.7142857142857" y="301.2857142857143" font-size="10" font-weight="600" fill="#065f46" text-anchor="end">+3 sec</text>
<rect x="1009.7142857142857" y="281.2857142857143" width="141.14285714285714" height="109.28571428571429" rx="6" fill="#ffffff" stroke="#e5e7eb"/>
<rect x="1154.857142857143" y="281.2857142857143" width="141.14285714285714" height="109.28571428571429" rx="6" fill="#ffffff" stroke="#e5e7eb"/>
<text x="70" y="442.21428571428567" font-size="14" font-weight="600" fill="#1f2933">Strategy &amp; Direction</text>
<rect x="284" y="398.57142857142856" width="141.14285714285714" height="109.28571428571429" rx="6" fill="#ffffff" stroke="#e5e7eb"/>
<rect x="429.1428571428571" y="398.57142857142856" width="141.14285714285714" height="109.28571428571429" rx="6" fill="#ffffff" stroke="#e5e7eb"/>
<rect x="574.2857142857142" y="398.57142857142856" width="141.14285714285714" height="109.28571428571429" rx="6" fill="#ffffff" stroke="#e5e7eb"/>
<rect x="578.2857142857142" y="402.57142857142856" width="133.14285714285714" height="16.25714285714286" rx="4" fill="#d1fae5" stroke="#065f46" stroke-width="1.5"/>
<text x="584.2857142857142" y="418.57142857142856" font-size="11" font-weight="700" fill="#065f46">CAND-007</text>
<text x="584.2857142857142" y="434.57142857142856" font-size="11" fill="#1f2933">Supplier Management</text>
<text x="711.4285714285713" y="418.57142857142856" font-size="10" font-weight="600" fill="#065f46" text-anchor="end">+2 sec</text>
<rect x="578.2857142857142" y="418.8285714285714" width="133.14285714285714" height="16.25714285714286" rx="4" fill="#fed7aa" stroke="#7c2d12" stroke-width="1.5"/>
<text x="584.2857142857142" y="434.8285714285714" font-size="11" font-weight="700" fill="#7c2d12">CAND-019</text>
<text x="584.2857142857142" y="450.8285714285714" font-size="11" fill="#1f2933">Technology Management</text>
<text x="711.4285714285713" y="434.8285714285714" font-size="10" font-weight="600" fill="#7c2d12" text-anchor="end">+2 sec</text>
<rect x="578.2857142857142" y="435.0857142857143" width="133.14285714285714" height="16.25714285714286" rx="4" fill="#d1fae5" stroke="#065f46" stroke-width="1.5"/>
<text x="584.2857142857142" y="451.0857142857143" font-size="11" font-weight="700" fill="#065f46">CAND-025</text>
<text x="584.2857142857142" y="467.0857142857143" font-size="11" fill="#1f2933">Sourcing and Procurement</text>
<text x="711.4285714285713" y="451.0857142857143" font-size="10" font-weight="600" fill="#065f46" text-anchor="end">+1 sec</text>
<rect x="578.2857142857142" y="451.34285714285716" width="133.14285714285714" height="16.25714285714286" rx="4" fill="#fed7aa" stroke="#7c2d12" stroke-width="1.5"/>
<text x="584.2857142857142" y="467.34285714285716" font-size="11" font-weight="700" fill="#7c2d12">CAND-026</text>
<text x="584.2857142857142" y="483.34285714285716" font-size="11" fill="#1f2933">Asset Management</text>
<text x="711.4285714285713" y="467.34285714285716" font-size="10" font-weight="600" fill="#7c2d12" text-anchor="end">+2 sec</text>
<rect x="719.4285714285714" y="398.57142857142856" width="141.14285714285714" height="109.28571428571429" rx="6" fill="#ffffff" stroke="#e5e7eb"/>
<rect x="723.4285714285714" y="402.57142857142856" width="133.14285714285714" height="16.25714285714286" rx="4" fill="#fed7aa" stroke="#7c2d12" stroke-width="1.5"/>
<text x="729.4285714285714" y="418.57142857142856" font-size="11" font-weight="700" fill="#7c2d12">CAND-027</text>
<text x="729.4285714285714" y="434.57142857142856" font-size="11" fill="#1f2933">Facility Management</text>
<text x="856.5714285714286" y="418.57142857142856" font-size="10" font-weight="600" fill="#7c2d12" text-anchor="end">+1 sec</text>
<rect x="864.5714285714286" y="398.57142857142856" width="141.14285714285714" height="109.28571428571429" rx="6" fill="#ffffff" stroke="#e5e7eb"/>
<rect x="1009.7142857142857" y="398.57142857142856" width="141.14285714285714" height="109.28571428571429" rx="6" fill="#ffffff" stroke="#e5e7eb"/>
<rect x="1154.857142857143" y="398.57142857142856" width="141.14285714285714" height="109.28571428571429" rx="6" fill="#ffffff" stroke="#e5e7eb"/>
<text x="70" y="551.5" font-size="14" font-weight="600" fill="#1f2933">Product &amp; Value</text>
<rect x="284" y="515.8571428571429" width="141.14285714285714" height="109.28571428571429" rx="6" fill="#ffffff" stroke="#e5e7eb"/>
<rect x="288" y="519.8571428571429" width="133.14285714285714" height="16.25714285714286" rx="4" fill="#d1fae5" stroke="#065f46" stroke-width="1.5"/>
<text x="294" y="535.8571428571429" font-size="11" font-weight="700" fill="#065f46">CAND-009</text>
<text x="294" y="551.8571428571429" font-size="11" fill="#1f2933">Offering Management</text>
<text x="421.1428571428571" y="535.8571428571429" font-size="10" font-weight="600" fill="#065f46" text-anchor="end">+4 sec</text>
<rect x="288" y="536.1142857142858" width="133.14285714285714" height="16.25714285714286" rx="4" fill="#dbeafe" stroke="#1e3a8a" stroke-width="1.5"/>
<text x="294" y="552.1142857142858" font-size="11" font-weight="700" fill="#1e3a8a">CAND-029</text>
<text x="294" y="568.1142857142858" font-size="11" fill="#1f2933">Innovation Management</text>
<text x="421.1428571428571" y="552.1142857142858" font-size="10" font-weight="600" fill="#1e3a8a" text-anchor="end">+1 sec</text>
<rect x="429.1428571428571" y="515.8571428571429" width="141.14285714285714" height="109.28571428571429" rx="6" fill="#ffffff" stroke="#e5e7eb"/>
<rect x="574.2857142857142" y="515.8571428571429" width="141.14285714285714" height="109.28571428571429" rx="6" fill="#ffffff" stroke="#e5e7eb"/>
<rect x="719.4285714285714" y="515.8571428571429" width="141.14285714285714" height="109.28571428571429" rx="6" fill="#ffffff" stroke="#e5e7eb"/>
<rect x="864.5714285714286" y="515.8571428571429" width="141.14285714285714" height="109.28571428571429" rx="6" fill="#ffffff" stroke="#e5e7eb"/>
<rect x="1009.7142857142857" y="515.8571428571429" width="141.14285714285714" height="109.28571428571429" rx="6" fill="#ffffff" stroke="#e5e7eb"/>
<rect x="1154.857142857143" y="515.8571428571429" width="141.14285714285714" height="109.28571428571429" rx="6" fill="#ffffff" stroke="#e5e7eb"/>
<text x="70" y="660.7857142857142" font-size="14" font-weight="600" fill="#1f2933">Operations &amp; Enablement</text>
<rect x="284" y="633.1428571428571" width="141.14285714285714" height="109.28571428571429" rx="6" fill="#ffffff" stroke="#e5e7eb"/>
<rect x="429.1428571428571" y="633.1428571428571" width="141.14285714285714" height="109.28571428571429" rx="6" fill="#ffffff" stroke="#e5e7eb"/>
<rect x="574.2857142857142" y="633.1428571428571" width="141.14285714285714" height="109.28571428571429" rx="6" fill="#ffffff" stroke="#e5e7eb"/>
<rect x="719.4285714285714" y="633.1428571428571" width="141.14285714285714" height="109.28571428571429" rx="6" fill="#ffffff" stroke="#e5e7eb"/>
<rect x="864.5714285714286" y="633.1428571428571" width="141.14285714285714" height="109.28571428571429" rx="6" fill="#ffffff" stroke="#e5e7eb"/>
<rect x="868.5714285714286" y="637.1428571428571" width="133.14285714285714" height="16.25714285714286" rx="4" fill="#d1fae5" stroke="#065f46" stroke-width="1.5"/>
<text x="874.5714285714286" y="653.1428571428571" font-size="11" font-weight="700" fill="#065f46">CAND-012</text>
<text x="874.5714285714286" y="669.1428571428571" font-size="11" fill="#1f2933">Operations</text>
<text x="1001.7142857142857" y="653.1428571428571" font-size="10" font-weight="600" fill="#065f46" text-anchor="end">+1 sec</text>
<rect x="868.5714285714286" y="653.4" width="133.14285714285714" height="16.25714285714286" rx="4" fill="#fed7aa" stroke="#7c2d12" stroke-width="1.5"/>
<text x="874.5714285714286" y="669.4" font-size="11" font-weight="700" fill="#7c2d12">CAND-017</text>
<text x="874.5714285714286" y="685.4" font-size="11" fill="#1f2933">Information Management</text>
<rect x="868.5714285714286" y="669.6571428571428" width="133.14285714285714" height="16.25714285714286" rx="4" fill="#fed7aa" stroke="#7c2d12" stroke-width="1.5"/>
<text x="874.5714285714286" y="685.6571428571428" font-size="11" font-weight="700" fill="#7c2d12">CAND-018</text>
<text x="874.5714285714286" y="701.6571428571428" font-size="11" fill="#1f2933">Analytics and Intellige</text>
<rect x="1009.7142857142857" y="633.1428571428571" width="141.14285714285714" height="109.28571428571429" rx="6" fill="#ffffff" stroke="#e5e7eb"/>
<rect x="1154.857142857143" y="633.1428571428571" width="141.14285714285714" height="109.28571428571429" rx="6" fill="#ffffff" stroke="#e5e7eb"/>
<text x="70" y="770.0714285714286" font-size="14" font-weight="600" fill="#1f2933">Finance &amp; Accounting</text>
<rect x="284" y="750.4285714285714" width="141.14285714285714" height="109.28571428571429" rx="6" fill="#ffffff" stroke="#e5e7eb"/>
<rect x="288" y="754.4285714285714" width="133.14285714285714" height="16.25714285714286" rx="4" fill="#dbeafe" stroke="#1e3a8a" stroke-width="1.5"/>
<text x="294" y="770.4285714285714" font-size="11" font-weight="700" fill="#1e3a8a">CAND-013</text>
<text x="294" y="786.4285714285714" font-size="11" fill="#1f2933">Financial Stewardship</text>
<text x="421.1428571428571" y="770.4285714285714" font-size="10" font-weight="600" fill="#1e3a8a" text-anchor="end">+1 sec</text>
<rect x="429.1428571428571" y="750.4285714285714" width="141.14285714285714" height="109.28571428571429" rx="6" fill="#ffffff" stroke="#e5e7eb"/>
<rect x="574.2857142857142" y="750.4285714285714" width="141.14285714285714" height="109.28571428571429" rx="6" fill="#ffffff" stroke="#e5e7eb"/>
<rect x="719.4285714285714" y="750.4285714285714" width="141.14285714285714" height="109.28571428571429" rx="6" fill="#ffffff" stroke="#e5e7eb"/>
<rect x="864.5714285714286" y="750.4285714285714" width="141.14285714285714" height="109.28571428571429" rx="6" fill="#ffffff" stroke="#e5e7eb"/>
<rect x="868.5714285714286" y="754.4285714285714" width="133.14285714285714" height="16.25714285714286" rx="4" fill="#d1fae5" stroke="#065f46" stroke-width="1.5"/>
<text x="874.5714285714286" y="770.4285714285714" font-size="11" font-weight="700" fill="#065f46">CAND-014</text>
<text x="874.5714285714286" y="786.4285714285714" font-size="11" fill="#1f2933">Financial Management</text>
<text x="1001.7142857142857" y="770.4285714285714" font-size="10" font-weight="600" fill="#065f46" text-anchor="end">+1 sec</text>
<rect x="1009.7142857142857" y="750.4285714285714" width="141.14285714285714" height="109.28571428571429" rx="6" fill="#ffffff" stroke="#e5e7eb"/>
<rect x="1154.857142857143" y="750.4285714285714" width="141.14285714285714" height="109.28571428571429" rx="6" fill="#ffffff" stroke="#e5e7eb"/>
<text x="70" y="879.3571428571429" font-size="14" font-weight="600" fill="#1f2933">Agency &amp; Organization</text>
<rect x="284" y="867.7142857142858" width="141.14285714285714" height="109.28571428571429" rx="6" fill="#ffffff" stroke="#e5e7eb"/>
<rect x="429.1428571428571" y="867.7142857142858" width="141.14285714285714" height="109.28571428571429" rx="6" fill="#ffffff" stroke="#e5e7eb"/>
<rect x="433.1428571428571" y="871.7142857142858" width="133.14285714285714" height="16.25714285714286" rx="4" fill="#fed7aa" stroke="#7c2d12" stroke-width="1.5"/>
<text x="439.1428571428571" y="887.7142857142858" font-size="11" font-weight="700" fill="#7c2d12">CAND-016</text>
<text x="439.1428571428571" y="903.7142857142858" font-size="11" fill="#1f2933">Workforce Planning</text>
<text x="566.2857142857142" y="887.7142857142858" font-size="10" font-weight="600" fill="#7c2d12" text-anchor="end">+1 sec</text>
<rect x="574.2857142857142" y="867.7142857142858" width="141.14285714285714" height="109.28571428571429" rx="6" fill="#ffffff" stroke="#e5e7eb"/>
<rect x="719.4285714285714" y="867.7142857142858" width="141.14285714285714" height="109.28571428571429" rx="6" fill="#ffffff" stroke="#e5e7eb"/>
<rect x="864.5714285714286" y="867.7142857142858" width="141.14285714285714" height="109.28571428571429" rx="6" fill="#ffffff" stroke="#e5e7eb"/>
<rect x="1009.7142857142857" y="867.7142857142858" width="141.14285714285714" height="109.28571428571429" rx="6" fill="#ffffff" stroke="#e5e7eb"/>
<rect x="1154.857142857143" y="867.7142857142858" width="141.14285714285714" height="109.28571428571429" rx="6" fill="#ffffff" stroke="#e5e7eb"/>
<rect x="1354" y="160" width="300" height="821" rx="8" fill="#ffffff" stroke="#e5e7eb"/>
<text x="1374" y="192" font-size="16" font-weight="700" fill="#1f2933">Status</text>
<text x="1374" y="230" font-size="13" fill="#6b7280">Canonical entries</text>
<text x="1374" y="255" font-size="28" font-weight="700" fill="#1f2933">26</text>
<text x="1484" y="230" font-size="13" fill="#6b7280">ECF cells used</text>
<text x="1484" y="255" font-size="28" font-weight="700" fill="#1f2933">14 / 49</text>
<text x="1374" y="300" font-size="13" fill="#6b7280">Specializations</text>
<text x="1374" y="325" font-size="22" font-weight="700" fill="#1f2933">1 (MCSP)</text>
<text x="1524" y="300" font-size="13" fill="#6b7280">Deferred</text>
<text x="1524" y="325" font-size="22" font-weight="700" fill="#1f2933">1</text>
<line x1="1374" y1="355" x2="1634" y2="355" stroke="#e5e7eb"/>
<text x="1374" y="385" font-size="14" font-weight="700" fill="#1f2933">Capability layer</text>
<rect x="1374" y="405" width="24" height="24" rx="4" fill="#dbeafe" stroke="#1e3a8a" stroke-width="1.5"/>
<text x="1410" y="423" font-size="14" fill="#1f2933">strategic</text>
<rect x="1374" y="441" width="24" height="24" rx="4" fill="#d1fae5" stroke="#065f46" stroke-width="1.5"/>
<text x="1410" y="459" font-size="14" fill="#1f2933">operational</text>
<rect x="1374" y="477" width="24" height="24" rx="4" fill="#fed7aa" stroke="#7c2d12" stroke-width="1.5"/>
<text x="1410" y="495" font-size="14" fill="#1f2933">support</text>
<line x1="1374" y1="530" x2="1634" y2="530" stroke="#e5e7eb"/>
<text x="1374" y="560" font-size="14" font-weight="700" fill="#1f2933">Held unmapped</text>
<text x="1374" y="580" font-size="11" fill="#6b7280">CAND-019 Technology Management</text>
<text x="1374" y="620" font-size="10" fill="#9ca3af">Legitimately absent; technology is L5,</text>
<text x="1374" y="634" font-size="10" fill="#9ca3af">not first-order business capability.</text>
<rect x="0" y="1011" width="1684" height="180" fill="#1e293b"/>
<text x="60" y="1049" font-size="15" font-weight="700" fill="#ffffff">Provenance</text>
<text x="60" y="1071" font-size="12" fill="#cbd5e1">ECF Conformance Profile: dea:ecf@1.0.0  ·  Metamodel pin: 1.0.0  ·  Method: CR-DEA-BC-01  ·  Specialization framework: CR-DEA-BC-04</text>
<text x="60" y="1091" font-size="12" fill="#cbd5e1">Layer 3 (value delivery); ECF coordinates are classification context, not capability identity (CG-001 §4)</text>
<text x="60" y="1116" font-size="12" fill="#94a3b8">Source: technehub-labs/dea-catalog-business-capabilities@v1-alpha.2  ·  CR-DEA-BC-05 §5 (initial posture)</text>
<text x="60" y="1136" font-size="11" fill="#64748b">Empty cells are legitimate results, not gaps. See docs/VERSIONING.md for catalog version semantics.</text>
</svg>